<svg version="1.1" xmlns="http://www.w3.org/2000/svg" viewBox="0 0 1059.987839 1059.987839">
<g transform="translate(-203.746658, -49.039123500000045)">
<path fill="#ff3d00" opacity="1.000000" stroke="none" 
	d="
M901.717834,749.662292 
	C895.041382,745.405457 888.487366,740.940002 881.663818,736.933533 
	C865.551392,727.472961 848.674133,728.475098 831.740417,734.178467 
	C824.867981,736.493103 818.332031,739.789673 811.571838,742.459290 
	C805.006592,745.051819 798.350159,747.413452 791.160034,749.628906 
	C789.698059,749.769287 788.809814,750.157349 787.921509,750.545410 
	C787.487366,750.654846 787.053223,750.764282 786.037476,750.575073 
	C774.891296,746.374695 764.250183,747.401428 753.674683,750.070374 
	C752.529785,750.359375 751.846741,752.478271 750.949463,753.748413 
	C750.169739,754.103943 749.389893,754.459473 747.936829,754.942322 
	C743.776794,756.865173 740.290039,758.660767 736.803223,760.456299 
	C731.352478,765.926208 724.641907,770.616455 720.684387,777.010620 
	C708.211365,797.163513 696.809204,817.977722 684.915222,838.491150 
	C678.639160,849.315186 670.052917,857.404114 656.471558,861.355530 
	C656.078979,857.569397 654.847473,854.069397 655.548584,851.012695 
	C658.687927,837.326660 661.667664,823.533142 666.049683,810.221008 
	C671.475037,793.739258 678.487976,777.787354 684.328369,761.432739 
	C689.267822,747.601013 689.612305,733.653137 682.116272,720.454834 
	C680.196106,717.074097 677.013672,714.410156 674.134949,710.799072 
	C673.087952,709.839294 672.317200,709.497253 671.546387,709.155212 
	C671.102722,708.918152 670.659058,708.681152 670.072388,707.866577 
	C669.830383,706.339172 669.411438,705.283691 669.684509,704.456726 
	C671.372925,699.341736 669.257080,696.544189 664.040710,696.921143 
	C661.915710,697.074646 658.903259,697.579407 657.769287,696.447266 
	C654.348938,693.032471 650.369446,694.397522 646.564514,693.977966 
	C641.885986,693.461975 637.805908,698.989807 632.800354,695.312744 
	C632.660645,695.210144 631.850159,696.105774 631.303040,696.459473 
	C626.961304,699.266785 622.607544,702.055359 618.180481,704.899231 
	C621.281189,705.789368 625.324890,706.950256 629.593079,708.175537 
	C628.042175,709.253418 626.513672,710.315735 624.985168,711.378052 
	C621.869873,712.844116 618.754578,714.310181 615.026917,715.530212 
	C609.654724,714.343445 604.894958,713.402771 600.135132,712.462097 
	C600.044250,712.960815 599.953308,713.459595 599.862366,713.958374 
	C600.840271,714.677856 601.818237,715.397339 602.796143,716.116821 
	C602.757385,716.597473 602.718689,717.078125 602.679993,717.558777 
	C601.227051,717.666321 599.739075,718.026672 598.328125,717.831238 
	C594.923950,717.359680 591.576599,716.445007 588.166626,716.059204 
	C585.404785,715.746704 581.510559,716.510986 581.426208,712.806396 
	C581.324219,708.330933 585.673828,710.789734 587.984741,709.937927 
	C589.718994,709.298645 591.246582,708.098572 592.866150,707.148193 
	C591.142639,706.523804 589.436951,705.447632 587.691589,705.379089 
	C584.952698,705.271484 582.187134,705.843811 578.818787,706.191650 
	C581.020752,703.491272 582.488708,701.691101 583.956543,699.890869 
	C584.782532,699.313782 585.608521,698.736755 586.941895,698.350098 
	C587.957153,698.011414 588.465149,697.482361 588.973083,696.953247 
	C588.973083,696.953247 588.985413,697.006836 589.354797,696.998169 
	C592.949402,696.290039 596.168274,695.039734 599.401123,695.002380 
	C606.797302,694.916870 613.890137,694.466431 620.027100,689.560547 
	C622.213867,687.812439 622.700562,686.438293 620.059814,685.245972 
	C617.251587,683.978027 616.823242,682.257080 618.043518,679.725281 
	C618.043518,679.725281 618.201843,679.263367 618.585754,679.580627 
	C623.067444,683.302307 628.741150,680.569458 629.981628,674.558105 
	C630.504517,672.024414 630.648010,669.228271 635.149780,669.432617 
	C634.820679,672.094116 634.334290,674.483704 634.320801,676.875916 
	C634.315186,677.869019 635.319763,678.867798 635.864990,679.863953 
	C636.856018,679.160889 638.684692,678.483154 638.706787,677.750793 
	C638.898315,671.413391 640.341919,664.809814 636.460205,659.989685 
	C637.045288,656.253479 637.681335,653.239197 637.942322,650.192749 
	C638.150452,647.763367 637.780762,645.290039 637.877563,642.844543 
	C638.183655,635.106812 638.646423,627.374695 638.871521,619.635254 
	C638.895935,618.796387 637.924500,617.406006 637.140320,617.164917 
	C634.855591,616.462524 632.431396,616.213501 630.061829,615.786743 
	C629.798889,616.339600 629.535889,616.892456 629.272949,617.445312 
	C631.137207,618.816772 633.001526,620.188171 635.103882,621.734741 
	C631.517395,624.801270 630.018860,621.041931 627.835083,620.079590 
	C627.835083,620.079590 627.922974,620.078064 627.929749,619.732300 
	C627.173340,618.596863 626.410156,617.807251 625.646973,617.017578 
	C624.774719,615.928833 623.902466,614.840088 623.003784,613.053772 
	C623.234070,608.672852 620.818420,608.084412 617.952454,608.017578 
	C604.751099,598.118408 589.211670,593.886536 573.634033,589.764648 
	C557.962585,585.617859 542.315186,581.372559 526.591125,577.434448 
	C502.742645,571.461365 478.776306,565.951172 454.978058,559.788513 
	C440.242401,555.972534 425.726196,551.309631 411.109863,547.032288 
	C400.469696,543.918518 389.826904,540.813477 378.543884,537.464722 
	C368.940247,534.785400 359.978058,532.345825 351.015839,529.906250 
	C342.302277,527.247375 333.699005,524.049866 324.813568,522.230164 
	C321.817932,521.616699 317.841644,523.686218 315.792816,527.575256 
	C313.353699,532.205017 310.525696,536.722839 307.262695,540.807068 
	C299.758118,550.200378 288.788422,553.526550 277.715576,555.607727 
	C253.509598,560.157043 227.332535,547.298096 217.063766,524.842896 
	C203.746658,495.721832 210.120895,467.720306 237.146393,450.219391 
	C258.269775,436.540466 280.993225,437.276031 301.974762,450.548889 
	C314.539185,458.497131 322.560822,470.878387 323.657562,486.708435 
	C324.647217,500.992798 325.624603,501.998627 339.832764,504.405823 
	C361.291809,508.041534 382.887115,510.947845 404.243622,515.095703 
	C435.645813,521.194641 466.872253,528.193542 498.203674,534.663208 
	C530.845276,541.403320 563.544373,547.865906 596.174744,554.659241 
	C611.417847,557.832703 625.895691,554.962280 640.063416,549.737427 
	C648.454224,546.643127 653.692444,540.041809 657.032532,531.925293 
	C660.096741,524.479309 662.254944,516.835632 661.822266,508.492798 
	C662.477112,508.791656 662.825439,509.226837 662.860779,509.686066 
	C663.594360,519.226807 664.268311,528.772278 665.027954,538.310791 
	C665.123535,539.511292 665.633606,540.678650 665.951599,541.861389 
	C666.438538,541.776489 666.925537,541.691589 667.412476,541.606689 
	C667.412476,523.622437 667.412476,505.638214 667.412476,487.653992 
	C666.863647,487.582001 666.314819,487.510040 665.765991,487.438049 
	C665.176514,491.686340 664.769226,495.971924 663.909851,500.164886 
	C663.554810,501.897339 662.230225,503.431091 661.346497,505.055176 
	C661.271118,504.655945 661.195801,504.256683 661.553345,503.561462 
	C661.986938,503.090912 661.987671,502.916351 661.988403,502.741760 
	C661.827637,502.953735 661.666870,503.165680 661.506104,503.377625 
	C660.223938,500.106415 658.812500,496.879272 657.681641,493.556641 
	C652.227600,477.531097 642.347046,463.987122 633.303833,449.984131 
	C620.537842,430.216522 607.633667,410.538177 594.819519,390.801575 
	C578.917603,366.309204 562.966003,341.848511 547.197021,317.270721 
	C539.017761,304.522400 531.219299,291.530304 523.188477,278.686035 
	C513.743469,263.580017 504.226685,248.518906 494.765747,233.422821 
	C494.153412,232.445755 493.763824,231.330612 493.251556,230.289062 
	C490.942383,225.594162 488.032227,224.469452 483.234772,225.720215 
	C460.480377,231.652512 439.730133,227.572433 423.043701,210.759445 
	C414.461731,202.112411 410.029663,190.595154 408.664215,178.030212 
	C405.883484,152.441681 420.827393,129.352890 439.328064,119.706268 
	C460.226440,108.809448 479.419495,108.578903 498.031616,124.997032 
	C512.556519,137.809723 520.904846,154.609329 520.476746,174.590851 
	C520.239075,185.682770 515.005371,195.344528 509.671082,204.731903 
	C507.243317,209.004379 506.942444,212.717957 509.833649,216.719635 
	C519.515686,230.120483 529.171509,243.540359 538.807373,256.974487 
	C546.878479,268.227112 554.804260,279.585510 562.981384,290.760254 
	C573.133972,304.634644 583.588501,318.288605 593.707520,332.187012 
	C602.232422,343.895905 610.412354,355.855316 618.839478,367.636230 
	C628.504456,381.147675 638.359558,394.523712 647.967285,408.075439 
	C654.358826,417.090698 660.461609,426.310730 667.005615,436.029602 
	C669.688599,439.814484 672.059631,443.008850 674.430664,446.203217 
	C683.298828,459.113190 693.234558,470.982574 706.172913,480.129150 
	C717.874390,488.401367 730.924255,490.974548 744.439941,487.585083 
	C765.912720,482.200073 786.914734,483.549957 807.986877,489.083557 
	C816.987793,491.447174 821.359375,489.840454 825.683655,481.795258 
	C833.722412,466.839722 841.216553,451.591034 849.279053,436.648712 
	C858.670166,419.244171 868.367432,402.003540 878.043823,384.754578 
	C886.669800,369.377838 895.377686,354.045959 904.179443,338.769226 
	C913.357971,322.838531 922.674744,306.987366 931.971252,291.124969 
	C934.057373,287.565430 936.761536,284.296570 938.364929,280.545013 
	C940.088440,276.512726 940.850830,272.069611 942.476074,267.395111 
	C946.987122,266.900146 949.865112,267.551880 948.166687,272.920013 
	C947.451111,275.181580 948.047546,277.858307 948.047546,280.346283 
	C948.301453,280.292145 948.555359,280.237976 948.809265,280.183838 
	C950.675964,276.271179 952.542664,272.358521 954.349487,268.571381 
	C952.441162,268.785919 949.455566,268.800537 949.765442,264.461670 
	C949.793762,264.064453 949.003235,263.402252 948.466980,263.204224 
	C944.616211,261.782379 940.732727,260.448792 936.859680,259.087158 
	C936.859680,259.087158 936.957581,259.074554 936.944519,258.714844 
	C934.366028,251.631760 933.781128,244.804138 934.891113,237.630402 
	C935.721069,232.266693 935.933777,226.740463 935.761597,221.307495 
	C935.588318,215.840195 934.599731,210.398727 933.968445,204.945938 
	C933.968445,204.945938 934.004639,204.991272 934.377563,204.978912 
	C940.079041,203.968826 945.407593,202.971100 951.268188,201.873764 
	C948.436584,196.405090 943.530762,202.443314 940.548462,198.939102 
	C940.668457,198.009613 940.854004,196.572495 941.039551,195.135376 
	C958.540161,177.599701 986.526306,173.884933 1007.043213,192.195663 
	C1022.140320,205.669342 1025.071899,222.829910 1021.360107,242.006592 
	C1017.143616,263.790527 1001.615417,272.479309 982.155396,276.621979 
	C976.522888,277.821014 970.637756,277.996552 964.851074,278.261841 
	C959.152100,278.523132 956.920349,282.650421 954.834290,286.767456 
	C949.906006,296.494019 945.406616,306.438629 940.441833,316.145782 
	C925.986206,344.409607 911.399780,372.606567 896.833496,400.813690 
	C894.032715,406.237213 891.090088,411.587494 887.940918,417.557678 
	C883.882996,425.261536 880.097046,432.379242 876.311096,439.496979 
	C870.728943,450.376526 865.146729,461.256042 859.205566,472.717163 
	C857.190063,476.749298 855.533386,480.199860 853.876831,483.650452 
	C852.136475,487.366699 850.102051,490.977966 848.728394,494.825134 
	C846.917480,499.897125 850.023987,503.905365 852.798279,507.531464 
	C861.011902,518.266785 876.909912,523.686829 889.985779,519.412781 
	C902.501526,515.321777 914.632507,510.053802 927.443481,505.597961 
	C928.264648,507.446869 928.574951,509.000916 929.001465,511.137390 
	C936.351990,508.112122 937.094971,516.321716 941.577576,518.649048 
	C942.893127,517.803955 944.161133,516.989380 946.526611,515.469849 
	C943.592163,528.326477 953.623413,523.616455 958.828369,525.667664 
	C957.720093,527.364807 956.861267,528.679993 956.007935,530.346313 
	C956.676392,531.465820 957.339417,532.234131 958.002319,533.334534 
	C958.002258,534.109436 958.002380,534.552307 957.660034,535.149048 
	C954.588318,535.931824 953.505249,537.634583 954.010498,540.373291 
	C953.208496,540.918091 952.406494,541.462952 951.167725,541.705322 
	C947.821472,540.269348 944.911926,539.135864 941.708435,537.724609 
	C937.609619,536.964600 933.804810,536.482300 929.846924,535.711792 
	C928.271912,535.306274 926.849976,535.188965 925.428101,535.071594 
	C925.371887,535.708801 925.315613,536.346069 925.259338,536.983276 
	C926.506226,537.322205 927.753113,537.661133 929.111206,538.256958 
	C929.481628,539.009216 929.740845,539.504578 929.831543,540.304932 
	C928.442749,542.072388 927.222595,543.534973 925.652466,545.001953 
	C924.201599,545.337585 923.100769,545.668762 921.983032,545.608643 
	C921.566589,544.552734 921.323792,543.542358 920.742554,543.279053 
	C916.599182,541.402100 912.151123,540.073975 908.276306,537.770142 
	C905.532349,536.138611 903.533936,533.253296 901.202759,530.927612 
	C901.429260,530.562927 901.655762,530.198181 901.882263,529.833496 
	C895.884888,529.353210 889.887573,528.872925 883.890198,528.392639 
	C883.645386,529.050415 883.400513,529.708191 883.155701,530.365967 
	C888.372253,533.280579 893.588806,536.195251 898.393250,538.879639 
	C898.316772,539.805359 897.895935,543.172302 898.057068,543.200439 
	C902.897583,544.044250 905.903809,548.063232 910.091797,549.887390 
	C911.024353,550.293518 912.363953,549.758423 913.516968,549.667053 
	C914.543457,549.585693 915.571106,549.518799 917.421692,549.386658 
	C913.719055,555.747620 916.266541,558.530029 921.935730,559.664307 
	C922.318970,559.741028 922.590698,560.375244 922.914246,560.750122 
	C916.727783,567.630737 910.541382,574.511292 903.908936,581.664673 
	C902.517639,581.482178 901.572266,581.026917 900.486816,580.504150 
	C900.108765,582.444885 899.807922,583.989258 899.422302,585.968933 
	C898.418030,584.189758 897.691284,582.902283 896.964539,581.614807 
	C896.614441,586.933533 897.097229,591.845520 897.490967,596.764587 
	C897.853882,601.297363 898.149780,605.836060 898.423706,610.375183 
	C898.877380,617.894714 899.289856,625.416687 899.719666,632.937622 
	C899.615601,634.656555 899.511536,636.375488 899.041321,638.632202 
	C898.717041,640.097961 898.758789,641.025940 898.800537,641.953918 
	C898.715088,642.712646 898.629578,643.471313 898.109253,644.732117 
	C897.841736,646.504150 898.009094,647.774109 898.176514,649.044067 
	C898.736694,652.770752 899.296936,656.497437 899.644531,660.803650 
	C899.676819,662.281677 899.921753,663.180176 900.166748,664.078735 
	C905.913940,676.144409 910.670654,688.833496 917.741272,700.066162 
	C922.828369,708.147522 931.001587,714.286194 937.717041,721.886230 
	C936.084229,725.845276 934.537292,729.211548 932.978210,732.572327 
	C932.514465,733.572021 932.275513,734.921021 931.487122,735.479492 
	C929.053467,737.203125 926.404297,738.622437 923.500977,740.362427 
	C917.876221,736.256470 912.120911,733.594360 909.682007,744.611145 
	C908.893372,743.981628 907.942932,743.223022 907.060181,742.518433 
	C905.190735,745.018250 903.454285,747.340271 901.717834,749.662292 
M943.378052,532.264160 
	C945.811096,532.375916 948.244141,532.487732 950.677185,532.599548 
	C950.652344,532.138733 950.627563,531.677917 950.602722,531.217163 
	C946.754639,529.082886 942.906555,526.948608 939.058472,524.814331 
	C938.659485,525.275696 938.260498,525.737061 937.861511,526.198425 
	C939.435303,528.158325 941.009155,530.118286 943.378052,532.264160 
M925.552002,728.844727 
	C928.058289,727.491699 930.564636,726.138672 933.070923,724.785583 
	C932.824585,724.280884 932.578247,723.776245 932.331909,723.271545 
	C930.435608,723.516968 928.543823,723.808289 926.641968,723.998169 
	C922.873596,724.374329 922.312500,725.924866 925.552002,728.844727 
M674.956238,696.568970 
	C672.657593,697.724365 672.433777,699.149475 674.773376,700.345276 
	C675.807434,700.873718 677.218262,700.664734 678.458069,700.790527 
	C677.510986,699.304443 676.563904,697.818359 674.956238,696.568970 
M880.530640,531.415710 
	C880.567078,528.417480 880.540771,528.408997 875.271057,530.649292 
	C877.525085,531.195862 878.736084,531.489502 880.530640,531.415710 
M931.796326,522.719177 
	C932.446045,521.901611 933.095825,521.084045 933.745605,520.266479 
	C932.929260,519.920166 932.112854,519.573792 931.296509,519.227478 
	C931.243408,520.277466 931.190308,521.327515 931.796326,522.719177 
M925.718262,715.703247 
	C924.957031,715.845947 924.195862,715.988586 923.434631,716.131287 
	C924.627075,717.049744 925.819580,717.968201 927.012024,718.886597 
	C927.251404,718.562622 927.490784,718.238647 927.730164,717.914612 
	C927.197266,717.343506 926.664429,716.772400 925.718262,715.703247 
M594.424683,713.188721 
	C595.435913,713.225769 596.447083,713.262878 597.458313,713.299927 
	C597.405701,712.717651 597.353027,712.135315 597.300415,711.553040 
	C596.281799,711.867859 595.263245,712.182678 594.424683,713.188721 
M899.305969,671.383606 
	C899.486206,670.154846 899.666382,668.926086 899.846619,667.697266 
	C899.318909,667.703979 898.791260,667.710693 898.263611,667.717407 
	C898.390869,668.939819 898.518066,670.162292 899.305969,671.383606 
M930.474731,528.722900 
	C930.727051,528.988159 930.977051,529.255981 931.244568,529.504883 
	C931.251465,529.511230 931.451416,529.309875 931.561340,529.205444 
	C931.308777,528.940063 931.056152,528.674622 930.474731,528.722900 
M918.184875,515.565125 
	C918.189514,515.199768 918.194092,514.834473 918.198669,514.469116 
	C918.047058,514.467285 917.763794,514.455017 917.762939,514.465149 
	C917.734253,514.828674 917.731750,515.194275 918.184875,515.565125 
z"/>
<path fill="#ff3d00" opacity="1.000000" stroke="none" 
	d="
M1125.768188,445.118134 
	C1125.266846,444.771790 1124.765503,444.425415 1124.135864,443.609833 
	C1123.856567,442.921021 1123.651611,442.842957 1123.392822,442.906372 
	C1117.366333,440.244415 1112.359497,443.928589 1107.795288,446.398346 
	C1093.130249,454.333771 1078.891113,463.055969 1064.481201,471.463440 
	C1061.905762,472.966064 1059.298828,474.414825 1056.263916,475.568451 
	C1051.060547,474.154968 1046.299805,473.061462 1041.465332,471.951080 
	C1041.652222,469.275787 1048.614502,469.835327 1044.863403,465.713745 
	C1043.080688,463.754791 1039.809204,463.150665 1037.229126,461.940735 
	C1039.877930,454.687592 1038.970703,453.353363 1031.272705,452.924438 
	C1030.779541,452.896942 1030.290527,452.792389 1029.799561,452.723663 
	C1046.895264,444.568909 1064.036499,436.507446 1081.063354,428.211273 
	C1087.435303,425.106598 1093.602783,421.561005 1099.722534,417.975647 
	C1101.171265,417.126892 1102.051636,415.307648 1103.582886,414.138550 
	C1103.991211,415.891968 1104.044678,417.442169 1104.020142,418.991150 
	C1103.988403,420.997620 1103.516479,424.663544 1103.886719,424.747864 
	C1107.018188,425.460663 1110.315918,425.772491 1113.518311,425.549683 
	C1114.117920,425.507935 1114.910767,422.547760 1114.937744,420.923126 
	C1115.077637,412.511200 1114.996094,404.095642 1114.995361,395.681335 
	C1114.994019,380.909882 1115.006714,366.138367 1114.961670,351.367065 
	C1114.959351,350.599182 1114.471069,349.832794 1114.209106,349.065674 
	C1120.831421,336.757843 1130.360474,326.806030 1141.591431,318.977051 
	C1157.673584,307.766541 1175.800781,304.260925 1195.220093,308.398132 
	C1216.548706,312.942139 1233.253052,324.488983 1245.713135,342.104492 
	C1258.069214,359.573029 1263.734497,379.150726 1259.942505,400.373932 
	C1255.604248,424.655029 1242.137939,442.572021 1219.887695,454.051666 
	C1205.183960,461.637848 1189.728516,465.114227 1173.448486,464.822052 
	C1159.649780,464.574402 1146.628662,460.983887 1135.085938,452.064453 
	C1133.959839,444.053375 1132.858276,443.308105 1125.768188,445.118134 
z"/>
<path fill="#ff3d00" opacity="1.000000" stroke="none" 
	d="
M1159.041626,911.135681 
	C1182.383057,899.494202 1205.583008,898.480164 1228.035400,913.051697 
	C1239.604736,920.560242 1248.941406,930.698669 1254.984375,943.107971 
	C1259.560181,952.504456 1261.290405,962.882019 1261.215820,973.499756 
	C1261.106079,989.141052 1259.733032,1004.383240 1249.878784,1017.475525 
	C1241.290771,1028.885254 1231.113525,1038.366089 1217.084595,1043.690430 
	C1215.036743,1043.529053 1213.469604,1044.000122 1212.208984,1043.570923 
	C1208.791992,1042.407349 1209.179688,1044.768311 1208.955200,1046.685059 
	C1208.524780,1046.779663 1208.094360,1046.874268 1207.230225,1046.604980 
	C1206.123779,1045.845703 1205.453613,1045.110840 1204.778076,1045.105591 
	C1194.989868,1045.031494 1185.200439,1045.000610 1175.413452,1045.130493 
	C1174.285767,1045.145508 1173.171753,1046.186646 1172.051392,1046.752075 
	C1171.295044,1046.762329 1170.538818,1046.772583 1169.389404,1046.394165 
	C1168.341187,1045.958252 1167.686035,1045.911133 1167.030762,1045.864014 
	C1152.046143,1041.981079 1139.386475,1034.295410 1129.111328,1021.939087 
	C1129.397705,1018.741028 1129.923340,1016.295532 1129.954590,1013.843811 
	C1130.061890,1005.445801 1129.995605,997.045532 1129.995605,989.564941 
	C1132.250732,988.553528 1134.703979,987.891907 1134.671753,987.390503 
	C1134.544312,985.412598 1134.213379,982.806396 1132.894043,981.684692 
	C1130.404419,979.567810 1129.969238,977.267456 1129.947021,974.310242 
	C1129.900024,968.031433 1129.457886,961.755859 1129.381958,955.476501 
	C1129.371582,954.625916 1130.536621,953.761047 1130.851318,953.325989 
	C1130.107666,951.270081 1129.365234,949.217651 1128.574219,947.031067 
	C1133.489136,946.141357 1136.366943,940.164612 1135.365479,934.802856 
	C1132.812866,935.233704 1130.272461,935.662537 1127.732056,936.091309 
	C1127.377319,936.101501 1127.133789,935.941956 1126.989502,934.979858 
	C1127.185059,931.773071 1127.392334,929.199158 1127.685913,925.552673 
	C1141.282471,931.263306 1154.670532,925.457275 1167.991455,925.082153 
	C1169.583496,922.199829 1171.294189,919.102661 1173.473022,916.001953 
	C1181.871582,915.998291 1189.802124,915.998291 1197.732544,915.998291 
	C1197.769409,915.433167 1197.806274,914.868103 1197.843262,914.302979 
	C1197.373779,913.923096 1196.909668,913.219666 1196.434082,913.211914 
	C1189.445312,913.097839 1182.452148,912.975159 1175.468384,913.164429 
	C1174.619019,913.187439 1173.818359,915.007202 1172.530029,915.997314 
	C1169.239502,916.000916 1166.391602,915.776367 1163.594360,916.056519 
	C1159.670654,916.449341 1158.477661,914.701111 1159.041626,911.135681 
M1252.986084,962.059998 
	C1252.540161,954.812561 1254.545410,947.206848 1249.559082,940.548645 
	C1248.995850,943.165039 1248.948853,945.763855 1249.003418,948.360596 
	C1249.320312,963.424011 1249.751099,978.485840 1249.926636,993.550720 
	C1249.967163,997.021851 1249.160400,1000.502747 1248.743408,1003.979187 
	C1248.378174,1003.949219 1248.012939,1003.919250 1247.647583,1003.889282 
	C1248.766602,1005.726013 1249.885498,1007.562744 1251.304932,1009.892639 
	C1251.635986,1008.772644 1251.937134,1008.201965 1251.956421,1007.621887 
	C1252.320190,996.683960 1252.684570,985.745789 1252.969849,974.805542 
	C1253.072754,970.859619 1252.969360,966.908386 1252.986084,962.059998 
M1177.430786,920.136597 
	C1176.186646,921.239441 1174.942505,922.342285 1173.698242,923.445190 
	C1174.069214,924.004028 1174.440063,924.562866 1174.810913,925.121765 
	C1176.238159,924.511169 1177.781006,924.059570 1179.005127,923.169617 
	C1179.284058,922.966797 1178.460938,921.248230 1177.430786,920.136597 
M1183.214478,923.497314 
	C1183.922974,923.810974 1184.631348,924.124573 1185.339844,924.438232 
	C1185.456421,923.995789 1185.572998,923.553406 1185.689575,923.110962 
	C1184.917358,923.022400 1184.145142,922.933899 1183.214478,923.497314 
z"/>
<path fill="#ff3d00" opacity="1.000000" stroke="none" 
	d="
M583.596558,699.931763 
	C582.488708,701.691101 581.020752,703.491272 578.818787,706.191650 
	C582.187134,705.843811 584.952698,705.271484 587.691589,705.379089 
	C589.436951,705.447632 591.142639,706.523804 592.866150,707.148193 
	C591.246582,708.098572 589.718994,709.298645 587.984741,709.937927 
	C585.673828,710.789734 581.324219,708.330933 581.426208,712.806396 
	C581.510559,716.510986 585.404785,715.746704 588.166626,716.059204 
	C591.576599,716.445007 594.923950,717.359680 598.328125,717.831238 
	C599.739075,718.026672 601.227051,717.666321 602.679993,717.558777 
	C602.718689,717.078125 602.757385,716.597473 602.796143,716.116821 
	C601.818237,715.397339 600.840271,714.677856 599.862366,713.958374 
	C599.953308,713.459595 600.044250,712.960815 600.135132,712.462097 
	C604.894958,713.402771 609.654724,714.343445 614.670715,715.536743 
	C575.260742,734.989258 538.374573,759.598267 496.798218,776.410217 
	C495.789520,776.996155 495.357544,777.375427 494.565369,777.818726 
	C492.930267,778.558960 491.655396,779.235107 490.040039,779.890015 
	C482.825531,783.122314 475.951477,786.375916 469.077454,789.629517 
	C455.057037,796.356018 440.987091,802.983643 427.085297,809.946960 
	C425.526825,810.727600 424.129150,813.359741 424.010773,815.219421 
	C423.504242,823.178223 423.109192,830.931580 419.359619,838.388855 
	C409.424255,858.148499 385.286316,866.030701 365.841675,855.421326 
	C348.161713,845.774780 340.163727,829.438110 344.115143,810.556885 
	C347.620544,793.807007 359.510651,784.770081 374.407440,779.086060 
	C388.361725,773.761658 400.124695,779.186035 410.485199,788.273315 
	C414.253540,791.578491 417.027100,792.285095 421.632782,789.653503 
	C448.952789,774.043579 476.401459,758.654724 503.943329,743.438477 
	C524.232056,732.229492 544.750122,721.436218 565.120361,710.373779 
	C571.237854,707.051697 577.202087,703.447571 583.596558,699.931763 
M366.332642,797.013794 
	C372.791962,797.616577 370.803223,793.316223 370.787018,791.093201 
	C366.907471,792.077393 363.189728,793.518127 359.371643,793.869751 
	C353.945465,794.369568 351.845062,797.026917 352.219086,802.534180 
	C352.800385,811.093445 352.733368,819.697266 352.914917,828.282837 
	C353.008423,832.704468 352.963379,837.131531 353.187164,841.545654 
	C353.225037,842.293030 354.308960,842.987427 354.909576,843.706238 
	C355.277283,843.561707 355.644958,843.417175 356.012634,843.272583 
	C356.012634,835.698853 356.012634,828.125061 356.012634,820.551270 
	C356.012634,812.844910 356.012634,805.138550 356.012634,797.014587 
	C359.789551,797.014587 362.596008,797.014587 366.332642,797.013794 
M370.701721,785.928650 
	C370.220428,785.981079 369.739105,786.033508 369.257812,786.085999 
	C369.369019,786.512695 369.480194,786.939453 369.591339,787.366150 
	C370.003296,787.077759 370.415253,786.789368 370.701721,785.928650 
z"/>
<path fill="#ff3d00" opacity="1.000000" stroke="none" 
	d="
M597.658142,895.539246 
	C604.367798,892.392700 610.793640,892.742798 617.429199,894.549866 
	C629.928650,897.953857 642.526184,900.947083 653.735962,907.910156 
	C663.107544,913.731506 667.800781,922.748962 670.809998,932.744934 
	C676.160156,950.516357 671.300781,966.496643 660.862610,980.994934 
	C655.251099,988.789124 647.225769,993.952148 638.456360,997.654663 
	C624.324524,1003.621216 609.803101,1003.778076 595.784912,997.844971 
	C572.235413,987.877869 558.842896,966.932800 563.380920,941.833984 
	C566.193176,926.280457 574.482971,912.464172 587.462219,902.350342 
	C590.577881,899.922546 594.019348,897.912781 597.658142,895.539246 
z"/>
<path fill="#ff3d00" opacity="1.000000" stroke="none" 
	d="
M1173.004883,916.005554 
	C1171.294189,919.102661 1169.583496,922.199829 1167.991455,925.082153 
	C1154.670532,925.457275 1141.282471,931.263306 1127.685913,925.552673 
	C1127.392334,929.199158 1127.185059,931.773071 1126.959473,934.750427 
	C1102.877319,915.489136 1078.799927,895.840698 1054.753296,876.154968 
	C1031.410400,857.045471 1008.098938,837.897888 984.302368,818.340881 
	C975.717834,811.215210 967.604553,804.515686 959.491272,797.816162 
	C949.449890,789.403931 939.408569,780.991699 929.604797,772.276733 
	C934.969482,771.541870 940.096558,771.109863 945.223633,770.677856 
	C944.963318,771.373291 944.703064,772.068726 944.442749,772.764160 
	C945.739685,773.730896 947.036621,774.697632 948.333557,775.664307 
	C949.193787,773.975464 950.054016,772.286621 950.914246,770.597778 
	C949.705322,769.982727 948.327820,769.564636 947.326599,768.707092 
	C945.778564,767.381226 944.487854,765.754944 943.088013,764.256042 
	C944.292664,763.504822 945.412903,762.526062 946.716797,762.042114 
	C952.050720,760.062256 957.441284,758.234924 962.807556,756.341858 
	C962.953125,756.290527 963.068359,756.138611 963.184631,756.020630 
	C965.106567,754.069519 967.026306,752.116211 968.946594,750.163452 
	C974.387268,755.368896 979.827942,760.574341 985.667908,766.248840 
	C997.971741,777.722900 1009.876282,788.727905 1021.780884,799.732910 
	C1028.630615,806.421570 1035.480347,813.110291 1042.786377,820.212036 
	C1056.045532,833.120178 1068.848267,845.615295 1081.651123,858.110413 
	C1089.167358,865.804443 1096.683594,873.498474 1104.686890,881.582764 
	C1114.036133,890.343994 1122.898560,898.714905 1131.760864,907.085815 
	C1131.760864,907.085815 1131.861084,907.558411 1131.712280,908.067383 
	C1127.918335,914.674316 1122.058838,912.915588 1116.497559,913.198303 
	C1119.887573,914.545166 1123.356567,915.337036 1126.860229,915.921631 
	C1131.279053,916.658936 1134.674683,915.367371 1136.113647,910.710205 
	C1137.161133,911.486938 1138.197754,912.279114 1139.258057,913.037964 
	C1146.976562,918.561462 1147.401489,918.553467 1155.397095,913.037292 
	C1156.342529,912.385132 1157.359009,911.836182 1158.692139,911.187500 
	C1158.477661,914.701111 1159.670654,916.449341 1163.594360,916.056519 
	C1166.391602,915.776367 1169.239502,916.000916 1172.532471,916.000122 
	C1173.000000,916.000000 1173.004883,916.005554 1173.004883,916.005554 
z"/>
<path fill="#ff3d00" opacity="1.000000" stroke="none" 
	d="
M1029.833252,452.728607 
	C1030.290527,452.792389 1030.779541,452.896942 1031.272705,452.924438 
	C1038.970703,453.353363 1039.877930,454.687592 1037.229126,461.940735 
	C1039.809204,463.150665 1043.080688,463.754791 1044.863403,465.713745 
	C1048.614502,469.835327 1041.652222,469.275787 1041.465332,471.951080 
	C1046.299805,473.061462 1051.060547,474.154968 1055.909424,475.619507 
	C1043.902344,484.037689 1031.807251,492.084839 1019.164917,500.456726 
	C1012.089844,505.151398 1005.561890,509.521332 998.732178,513.913940 
	C998.163879,514.225342 997.897339,514.513977 997.616455,514.827881 
	C997.602173,514.853210 997.574463,514.801270 997.574463,514.801270 
	C985.323792,521.849609 973.073120,528.897888 960.201233,535.883362 
	C959.054199,535.545410 958.528320,535.270264 958.002441,534.995117 
	C958.002380,534.552307 958.002258,534.109436 958.343994,533.266235 
	C959.002075,532.223450 959.318237,531.581055 959.634399,530.938660 
	C958.423767,530.624146 957.213074,530.309631 956.002441,529.995117 
	C956.861267,528.679993 957.720093,527.364807 958.828369,525.667664 
	C953.623413,523.616455 943.592163,528.326477 946.526611,515.469849 
	C944.161133,516.989380 942.893127,517.803955 941.577576,518.649048 
	C937.094971,516.321716 936.351990,508.112122 929.001465,511.137390 
	C928.574951,509.000916 928.264648,507.446869 927.825317,505.511627 
	C937.820251,499.545868 947.807312,493.693207 958.096313,488.430969 
	C981.411804,476.506378 1004.876221,464.872681 1028.761353,453.221191 
	C1029.428711,453.122162 1029.614746,452.922638 1029.800903,452.723145 
	C1029.800903,452.723145 1029.866943,452.733521 1029.833252,452.728607 
z"/>
<path fill="#ff3d00" opacity="1.000000" stroke="none" 
	d="
M968.840088,749.869507 
	C967.026306,752.116211 965.106567,754.069519 963.184631,756.020630 
	C963.068359,756.138611 962.953125,756.290527 962.807556,756.341858 
	C957.441284,758.234924 952.050720,760.062256 946.716797,762.042114 
	C945.412903,762.526062 944.292664,763.504822 943.088013,764.256042 
	C944.487854,765.754944 945.778564,767.381226 947.326599,768.707092 
	C948.327820,769.564636 949.705322,769.982727 950.914246,770.597778 
	C950.054016,772.286621 949.193787,773.975464 948.333557,775.664307 
	C947.036621,774.697632 945.739685,773.730896 944.442749,772.764160 
	C944.703064,772.068726 944.963318,771.373291 945.223633,770.677856 
	C940.096558,771.109863 934.969482,771.541870 929.474854,771.971924 
	C923.883301,767.632507 918.659241,763.294983 913.359802,758.356018 
	C914.452942,752.225037 923.600647,753.780029 923.139221,746.716858 
	C923.126587,746.523804 924.321472,746.319275 924.893616,746.009827 
	C929.488281,743.524597 933.977417,742.922668 938.039795,747.194214 
	C940.953003,744.770569 943.285034,742.352844 946.072449,740.705566 
	C947.543640,739.836060 950.053040,739.710815 951.640930,740.358765 
	C953.006897,740.916260 953.730408,743.048096 954.737976,744.483765 
	C957.702209,748.096191 961.361816,752.497803 966.787659,748.075806 
	C967.436279,748.575745 968.084961,749.075684 968.840088,749.869507 
M943.149353,754.938904 
	C943.349487,753.723633 944.143250,752.099731 943.640015,751.368652 
	C942.047241,749.054626 939.825562,748.010803 935.896301,750.983948 
	C938.488220,752.582092 940.436096,753.783203 943.149353,754.938904 
M950.332275,750.080994 
	C949.747131,750.601440 949.161987,751.121887 948.576782,751.642273 
	C949.091614,751.967041 949.606445,752.291809 950.121338,752.616516 
	C950.404663,751.821106 950.687988,751.025696 950.332275,750.080994 
M956.514160,753.432739 
	C956.514160,753.432739 956.562500,753.520752 956.514160,753.432739 
z"/>
<path fill="#ff3d00" opacity="1.000000" stroke="none" 
	d="
M966.652832,747.777588 
	C961.361816,752.497803 957.702209,748.096191 954.737976,744.483765 
	C953.730408,743.048096 953.006897,740.916260 951.640930,740.358765 
	C950.053040,739.710815 947.543640,739.836060 946.072449,740.705566 
	C943.285034,742.352844 940.953003,744.770569 938.039795,747.194214 
	C933.977417,742.922668 929.488281,743.524597 924.893616,746.009827 
	C924.321472,746.319275 923.126587,746.523804 923.139221,746.716858 
	C923.600647,753.780029 914.452942,752.225037 913.159363,758.056519 
	C909.373413,755.637939 905.712524,752.917419 901.884766,749.929626 
	C903.454285,747.340271 905.190735,745.018250 907.060181,742.518433 
	C907.942932,743.223022 908.893372,743.981628 909.682007,744.611145 
	C912.120911,733.594360 917.876221,736.256470 923.500977,740.362427 
	C926.404297,738.622437 929.053467,737.203125 931.487122,735.479492 
	C932.275513,734.921021 932.514465,733.572021 932.978210,732.572327 
	C934.537292,729.211548 936.084229,725.845276 937.839050,722.196655 
	C941.022583,724.698120 944.002991,727.484009 946.715637,730.752808 
	C944.562927,731.125305 942.679077,730.987183 940.792725,730.914368 
	C939.587952,730.867798 937.563354,730.513916 937.323486,730.998901 
	C936.560364,732.541443 936.140564,734.435608 936.263855,736.145142 
	C936.312988,736.826050 938.215576,737.997314 939.126831,737.871948 
	C941.609680,737.530640 944.013855,736.616882 946.802368,735.830322 
	C949.262146,736.364380 952.503723,737.068115 955.745239,737.771851 
	C959.336121,741.007690 962.927063,744.243469 966.652832,747.777588 
z"/>
<path fill="#ff3d00" opacity="1.000000" stroke="none" 
	d="
M923.225098,560.631470 
	C922.590698,560.375244 922.318970,559.741028 921.935730,559.664307 
	C916.266541,558.530029 913.719055,555.747620 917.421692,549.386658 
	C915.571106,549.518799 914.543457,549.585693 913.516968,549.667053 
	C912.363953,549.758423 911.024353,550.293518 910.091797,549.887390 
	C905.903809,548.063232 902.897583,544.044250 898.057068,543.200439 
	C897.895935,543.172302 898.316772,539.805359 898.393250,538.879639 
	C893.588806,536.195251 888.372253,533.280579 883.155701,530.365967 
	C883.400513,529.708191 883.645386,529.050415 883.890198,528.392639 
	C889.887573,528.872925 895.884888,529.353210 901.882263,529.833496 
	C901.655762,530.198181 901.429260,530.562927 901.202759,530.927612 
	C903.533936,533.253296 905.532349,536.138611 908.276306,537.770142 
	C912.151123,540.073975 916.599182,541.402100 920.742554,543.279053 
	C921.323792,543.542358 921.566589,544.552734 922.059204,545.967163 
	C923.432983,546.871094 924.713013,547.029663 925.994263,547.178345 
	C930.244141,547.671753 935.100647,545.347107 938.482727,549.868896 
	C933.500488,553.416870 928.518188,556.964783 923.225098,560.631470 
z"/>
<path fill="#ff3d00" opacity="1.000000" stroke="none" 
	d="
M625.345764,711.385498 
	C626.513672,710.315735 628.042175,709.253418 629.593079,708.175537 
	C625.324890,706.950256 621.281189,705.789368 618.180481,704.899231 
	C622.607544,702.055359 626.961304,699.266785 631.303040,696.459473 
	C631.850159,696.105774 632.660645,695.210144 632.800354,695.312744 
	C637.805908,698.989807 641.885986,693.461975 646.564514,693.977966 
	C650.369446,694.397522 654.348938,693.032471 657.769287,696.447266 
	C658.903259,697.579407 661.915710,697.074646 664.040710,696.921143 
	C669.257080,696.544189 671.372925,699.341736 669.684509,704.456726 
	C669.411438,705.283691 669.830383,706.339172 669.968811,707.632385 
	C656.806152,700.220337 644.098816,705.787231 631.330750,709.438049 
	C629.425354,709.982788 627.579651,710.736206 625.345764,711.385498 
z"/>
<path fill="#ff3d00" opacity="1.000000" stroke="none" 
	d="
M1127.769043,936.488647 
	C1130.272461,935.662537 1132.812866,935.233704 1135.365479,934.802856 
	C1136.366943,940.164612 1133.489136,946.141357 1128.574219,947.031067 
	C1129.365234,949.217651 1130.107666,951.270081 1130.851318,953.325989 
	C1130.536621,953.761047 1129.371582,954.625916 1129.381958,955.476501 
	C1129.457886,961.755859 1129.900024,968.031433 1129.947021,974.310242 
	C1129.969238,977.267456 1130.404419,979.567810 1132.894043,981.684692 
	C1134.213379,982.806396 1134.544312,985.412598 1134.671753,987.390503 
	C1134.703979,987.891907 1132.250732,988.553528 1129.995605,989.564941 
	C1129.995605,997.045532 1130.061890,1005.445801 1129.954590,1013.843811 
	C1129.923340,1016.295532 1129.397705,1018.741028 1129.045654,1021.605957 
	C1128.047729,1020.890564 1127.102905,1019.758545 1126.433350,1018.254272 
	C1126.864258,1017.062439 1127.261841,1016.202759 1127.134277,1015.429810 
	C1126.496948,1011.568726 1125.161499,1007.740112 1125.094604,1003.882385 
	C1124.846313,989.564026 1125.084351,975.237488 1124.889771,960.917480 
	C1124.866821,959.227112 1123.299683,957.557678 1122.448364,955.878540 
	C1123.821411,952.563171 1125.481812,949.331482 1126.479248,945.906677 
	C1127.321045,943.016113 1127.393311,939.901428 1127.769043,936.488647 
M1130.289185,943.829895 
	C1130.434570,943.911438 1130.579834,943.993042 1130.725220,944.074646 
	C1130.662231,943.940491 1130.599365,943.806274 1130.289185,943.829895 
z"/>
<path fill="#ff3d00" opacity="1.000000" stroke="none" 
	d="
M1104.275146,412.012329 
	C1101.109009,396.278442 1099.875122,380.615692 1106.083374,365.249237 
	C1106.760376,363.573700 1107.603149,361.965149 1108.770996,360.526611 
	C1110.112671,362.954193 1111.866943,365.184113 1111.857666,367.406616 
	C1111.805176,379.876831 1111.307739,392.344757 1111.007935,404.814575 
	C1110.924438,408.290192 1111.098267,411.774139 1110.941528,415.244690 
	C1110.888306,416.423065 1110.323364,417.665924 1109.664917,418.663208 
	C1109.514526,418.891083 1107.282104,418.275269 1107.260498,417.961731 
	C1107.183716,416.843262 1107.601562,415.674896 1107.923828,414.551697 
	C1108.089844,413.973236 1108.449097,413.450226 1108.995117,412.349823 
	C1107.092407,412.213776 1105.683838,412.113068 1104.275146,412.012329 
z"/>
<path fill="#ff3d00" opacity="1.000000" stroke="none" 
	d="
M1122.272217,956.166565 
	C1123.299683,957.557678 1124.866821,959.227112 1124.889771,960.917480 
	C1125.084351,975.237488 1124.846313,989.564026 1125.094604,1003.882385 
	C1125.161499,1007.740112 1126.496948,1011.568726 1127.134277,1015.429810 
	C1127.261841,1016.202759 1126.864258,1017.062439 1126.387573,1017.933350 
	C1120.951904,1011.112244 1118.243408,1003.291077 1117.111084,994.889954 
	C1115.325439,981.641785 1117.334961,968.864502 1122.272217,956.166565 
z"/>
<path fill="#ff3d00" opacity="1.000000" stroke="none" 
	d="
M627.874390,620.428833 
	C630.018860,621.041931 631.517395,624.801270 635.103882,621.734741 
	C633.001526,620.188171 631.137207,618.816772 629.272949,617.445312 
	C629.535889,616.892456 629.798889,616.339600 630.061829,615.786743 
	C632.431396,616.213501 634.855591,616.462524 637.140320,617.164917 
	C637.924500,617.406006 638.895935,618.796387 638.871521,619.635254 
	C638.646423,627.374695 638.183655,635.106812 637.877563,642.844543 
	C637.780762,645.290039 638.150452,647.763367 637.942322,650.192749 
	C637.681335,653.239197 637.045288,656.253479 636.460205,659.989685 
	C640.341919,664.809814 638.898315,671.413391 638.706787,677.750793 
	C638.684692,678.483154 636.856018,679.160889 635.864990,679.863953 
	C635.319763,678.867798 634.315186,677.869019 634.320801,676.875916 
	C634.334290,674.483704 634.820679,672.094116 635.149780,669.432617 
	C630.648010,669.228271 630.504517,672.024414 629.981628,674.558105 
	C628.741150,680.569458 623.067444,683.302307 618.821350,679.516602 
	C623.038818,674.924377 627.404602,670.713440 632.286133,666.219482 
	C632.935242,665.312500 633.068665,664.688660 633.202087,664.064758 
	C635.962280,655.416565 636.229187,646.707031 634.203613,637.412720 
	C634.977173,633.734924 635.391968,630.576721 635.806824,627.418518 
	C635.210510,627.266113 634.614197,627.113708 634.017883,626.961243 
	C633.664307,628.054138 633.086731,629.131775 633.011414,630.243530 
	C632.906921,631.785095 633.179749,633.352173 633.291016,634.908325 
	C632.486572,632.276367 631.682068,629.644470 630.971802,626.541138 
	C630.969299,626.114685 630.872559,626.159607 630.775757,626.204529 
	C629.821716,624.395691 628.867737,622.586914 627.874390,620.428833 
z"/>
<path fill="#ff3d00" opacity="1.000000" stroke="none" 
	d="
M1104.146118,412.255676 
	C1105.683838,412.113068 1107.092407,412.213776 1108.995117,412.349823 
	C1108.449097,413.450226 1108.089844,413.973236 1107.923828,414.551697 
	C1107.601562,415.674896 1107.183716,416.843262 1107.260498,417.961731 
	C1107.282104,418.275269 1109.514526,418.891083 1109.664917,418.663208 
	C1110.323364,417.665924 1110.888306,416.423065 1110.941528,415.244690 
	C1111.098267,411.774139 1110.924438,408.290192 1111.007935,404.814575 
	C1111.307739,392.344757 1111.805176,379.876831 1111.857666,367.406616 
	C1111.866943,365.184113 1110.112671,362.954193 1109.081055,360.363892 
	C1110.524780,356.477264 1112.060425,352.954376 1113.902588,349.248596 
	C1114.471069,349.832794 1114.959351,350.599182 1114.961670,351.367065 
	C1115.006714,366.138367 1114.994019,380.909882 1114.995361,395.681335 
	C1114.996094,404.095642 1115.077637,412.511200 1114.937744,420.923126 
	C1114.910767,422.547760 1114.117920,425.507935 1113.518311,425.549683 
	C1110.315918,425.772491 1107.018188,425.460663 1103.886719,424.747864 
	C1103.516479,424.663544 1103.988403,420.997620 1104.020142,418.991150 
	C1104.044678,417.442169 1103.991211,415.891968 1103.879150,413.951416 
	C1103.862915,413.206696 1103.940063,412.852875 1104.146118,412.255676 
M1111.185059,359.914062 
	C1111.405151,359.866821 1111.625366,359.819550 1111.845337,359.772308 
	C1111.766479,359.485260 1111.687500,359.198242 1111.608643,358.911194 
	C1111.441040,359.107697 1111.273438,359.304199 1111.185059,359.914062 
z"/>
<path fill="#ff3d00" opacity="1.000000" stroke="none" 
	d="
M1081.985229,858.054443 
	C1068.848267,845.615295 1056.045532,833.120178 1043.103149,820.321045 
	C1046.117676,821.167053 1049.371094,822.106445 1052.394043,823.534119 
	C1054.784546,824.663147 1056.814453,827.473145 1059.140503,827.639832 
	C1064.807373,828.045715 1066.703735,832.172241 1069.478516,835.830322 
	C1071.567139,838.583679 1073.947266,841.369385 1076.791138,843.237000 
	C1080.998535,845.999939 1083.948364,852.778259 1081.985229,858.054443 
z"/>
<path fill="#ff3d00" opacity="1.000000" stroke="none" 
	d="
M933.672485,205.137848 
	C934.599731,210.398727 935.588318,215.840195 935.761597,221.307495 
	C935.933777,226.740463 935.721069,232.266693 934.891113,237.630402 
	C933.781128,244.804138 934.366028,251.631760 936.912842,258.752686 
	C925.618347,244.531006 925.052856,228.463943 930.556091,211.623535 
	C931.266296,209.450439 932.425476,207.424088 933.672485,205.137848 
z"/>
<path fill="#ff3d00" opacity="1.000000" stroke="none" 
	d="
M899.917114,632.622070 
	C899.289856,625.416687 898.877380,617.894714 898.423706,610.375183 
	C898.149780,605.836060 897.853882,601.297363 897.490967,596.764587 
	C897.097229,591.845520 896.614441,586.933533 896.964539,581.614807 
	C897.691284,582.902283 898.418030,584.189758 899.422302,585.968933 
	C899.807922,583.989258 900.108765,582.444885 900.486816,580.504150 
	C901.572266,581.026917 902.517639,581.482178 903.799927,581.985840 
	C900.361328,593.516479 902.199158,605.348145 901.847290,617.054688 
	C901.693970,622.151367 900.717285,627.223389 899.917114,632.622070 
z"/>
<path fill="#ff3d00" opacity="1.000000" stroke="none" 
	d="
M617.684631,679.824219 
	C616.823242,682.257080 617.251587,683.978027 620.059814,685.245972 
	C622.700562,686.438293 622.213867,687.812439 620.027100,689.560547 
	C613.890137,694.466431 606.797302,694.916870 599.401123,695.002380 
	C596.168274,695.039734 592.949402,696.290039 589.335815,696.978149 
	C596.157715,692.844849 603.397095,688.772644 610.561707,684.572876 
	C612.915955,683.192810 615.076538,681.482422 617.684631,679.824219 
M614.513977,685.432861 
	C614.513977,685.432861 614.561584,685.520325 614.513977,685.432861 
z"/>
<path fill="#ff3d00" opacity="1.000000" stroke="none" 
	d="
M661.266357,505.405273 
	C662.230225,503.431091 663.554810,501.897339 663.909851,500.164886 
	C664.769226,495.971924 665.176514,491.686340 665.765991,487.438049 
	C666.314819,487.510040 666.863647,487.582001 667.412476,487.653992 
	C667.412476,505.638214 667.412476,523.622437 667.412476,541.606689 
	C666.925537,541.691589 666.438538,541.776489 665.951599,541.861389 
	C665.633606,540.678650 665.123535,539.511292 665.027954,538.310791 
	C664.268311,528.772278 663.594360,519.226807 662.860779,509.686066 
	C662.825439,509.226837 662.477112,508.791656 661.922852,508.091248 
	C661.442871,507.143280 661.314514,506.449341 661.266357,505.405273 
z"/>
<path fill="#ff3d00" opacity="1.000000" stroke="none" 
	d="
M1022.114319,799.441650 
	C1009.876282,788.727905 997.971741,777.722900 985.967041,766.393250 
	C988.492981,767.641846 991.109924,769.230469 993.748169,770.782959 
	C995.672241,771.915161 997.532715,773.228333 999.585938,774.050537 
	C1002.482666,775.210510 1006.566772,774.770813 1006.165588,779.710083 
	C1006.153870,779.854492 1006.241943,780.055237 1006.351624,780.154419 
	C1011.124451,784.469910 1015.715332,789.018616 1020.765808,792.981445 
	C1023.234253,794.918213 1025.020142,796.210022 1022.114319,799.441650 
z"/>
<path fill="#ff3d00" opacity="1.000000" stroke="none" 
	d="
M1132.078125,907.033264 
	C1122.898560,898.714905 1114.036133,890.343994 1105.017334,881.693848 
	C1108.349365,876.922668 1111.208130,881.661438 1113.266968,882.811768 
	C1117.455078,885.151855 1121.330078,888.647583 1124.257324,892.487854 
	C1127.427490,896.646790 1128.043457,902.631470 1133.226318,905.503418 
	C1132.949341,905.995850 1132.672363,906.488281 1132.078125,907.033264 
z"/>
<path fill="#ff3d00" opacity="1.000000" stroke="none" 
	d="
M959.189636,797.969177 
	C967.604553,804.515686 975.717834,811.215210 983.978394,818.197693 
	C984.062500,820.808167 983.590271,822.448975 980.579895,821.378845 
	C979.074341,820.843689 977.372864,820.859863 975.435730,820.579773 
	C976.720032,815.351807 975.014954,813.022095 969.979980,810.370117 
	C966.188782,808.373230 962.416809,807.597168 958.888000,806.598694 
	C958.888000,803.556274 958.888000,800.839233 959.189636,797.969177 
z"/>
<path fill="#ff3d00" opacity="1.000000" stroke="none" 
	d="
M1172.351318,1046.992920 
	C1173.171753,1046.186646 1174.285767,1045.145508 1175.413452,1045.130493 
	C1185.200439,1045.000610 1194.989868,1045.031494 1204.778076,1045.105591 
	C1205.453613,1045.110840 1206.123779,1045.845703 1206.900146,1046.630615 
	C1201.731812,1047.899048 1196.457642,1049.487183 1191.187988,1049.471802 
	C1185.006958,1049.453857 1178.829956,1048.041504 1172.351318,1046.992920 
z"/>
<path fill="#ff3d00" opacity="1.000000" stroke="none" 
	d="
M751.354553,753.791748 
	C751.846741,752.478271 752.529785,750.359375 753.674683,750.070374 
	C764.250183,747.401428 774.891296,746.374695 785.700562,750.533081 
	C779.575867,751.195557 773.196960,751.491821 766.839966,752.042053 
	C761.799255,752.478271 756.785400,753.225830 751.354553,753.791748 
z"/>
<path fill="#ff3d00" opacity="1.000000" stroke="none" 
	d="
M999.033936,513.891235 
	C1005.561890,509.521332 1012.089844,505.151398 1018.943604,500.745972 
	C1021.193115,503.716614 1019.896179,507.358582 1016.338989,509.296814 
	C1013.022888,511.103668 1009.944885,513.499146 1006.447754,514.772034 
	C1003.860046,515.713928 1000.768066,515.270325 997.737549,515.122620 
	C997.574463,514.801270 997.602173,514.853210 997.902710,514.763184 
	C998.480164,514.412537 998.757080,514.151917 999.033936,513.891235 
z"/>
<path fill="#ff3d00" opacity="1.000000" stroke="none" 
	d="
M938.656860,549.861206 
	C935.100647,545.347107 930.244141,547.671753 925.994263,547.178345 
	C924.713013,547.029663 923.432983,546.871094 922.076172,546.358521 
	C923.100769,545.668762 924.201599,545.337585 926.096191,545.001953 
	C929.259216,544.996704 931.628357,544.995850 934.350220,544.950195 
	C935.278137,543.641357 935.853394,542.377380 936.428711,541.113525 
	C934.952454,540.742371 933.476257,540.371216 931.666687,540.000000 
	C930.888916,540.000000 930.444458,540.000000 930.000000,540.000000 
	C929.740845,539.504578 929.481628,539.009216 929.222168,537.999878 
	C929.481323,536.990601 929.740662,536.495300 930.000000,536.000000 
	C933.804810,536.482300 937.609619,536.964600 941.565735,538.045654 
	C942.185486,539.814575 942.474731,541.107788 943.171143,542.121155 
	C943.912415,543.199768 945.039307,544.013306 945.997803,544.942627 
	C944.920837,545.595093 943.843872,546.247559 942.086243,547.006042 
	C940.612610,547.929749 939.819702,548.747498 939.026733,549.565186 
	C939.026733,549.565186 938.830994,549.853516 938.656860,549.861206 
z"/>
<path fill="#ff3d00" opacity="1.000000" stroke="none" 
	d="
M351.068726,530.263489 
	C359.978058,532.345825 368.940247,534.785400 378.157227,537.501953 
	C369.029449,541.450928 357.863525,538.522156 351.068726,530.263489 
z"/>
<path fill="#ff3d00" opacity="1.000000" stroke="none" 
	d="
M494.925568,777.754639 
	C495.357544,777.375427 495.789520,776.996155 496.518555,776.619995 
	C498.387146,781.492920 495.008759,782.396912 491.552551,782.919434 
	C486.947296,783.615662 483.021393,784.843567 480.950928,789.733826 
	C479.635040,792.841919 470.838593,793.108398 469.075989,790.020447 
	C475.951477,786.375916 482.825531,783.122314 490.477722,779.908813 
	C492.479065,779.217468 493.702332,778.486023 494.925568,777.754639 
z"/>
<path fill="#ff3d00" opacity="1.000000" stroke="none" 
	d="
M876.712646,439.619232 
	C880.097046,432.379242 883.882996,425.261536 887.900024,417.940948 
	C888.669617,418.303223 889.699890,418.896484 889.669434,419.429108 
	C889.408264,423.998901 888.955139,428.557739 888.501160,433.790375 
	C885.448730,429.665710 883.970642,431.060822 882.837280,434.808533 
	C882.024353,437.496674 880.876343,440.261292 876.712646,439.619232 
z"/>
<path fill="#ff3d00" opacity="1.000000" stroke="none" 
	d="
M936.901733,259.433746 
	C940.732727,260.448792 944.616211,261.782379 948.466980,263.204224 
	C949.003235,263.402252 949.793762,264.064453 949.765442,264.461670 
	C949.455566,268.800537 952.441162,268.785919 954.349487,268.571381 
	C952.542664,272.358521 950.675964,276.271179 948.809265,280.183838 
	C948.555359,280.237976 948.301453,280.292145 948.047546,280.346283 
	C948.047546,277.858307 947.451111,275.181580 948.166687,272.920013 
	C949.865112,267.551880 946.987122,266.900146 942.516418,266.977783 
	C940.390015,264.574158 938.666931,262.177246 936.901733,259.433746 
z"/>
<path fill="#ff3d00" opacity="1.000000" stroke="none" 
	d="
M955.531982,737.474792 
	C952.503723,737.068115 949.262146,736.364380 946.802368,735.830322 
	C944.013855,736.616882 941.609680,737.530640 939.126831,737.871948 
	C938.215576,737.997314 936.312988,736.826050 936.263855,736.145142 
	C936.140564,734.435608 936.560364,732.541443 937.323486,730.998901 
	C937.563354,730.513916 939.587952,730.867798 940.792725,730.914368 
	C942.679077,730.987183 944.562927,731.125305 946.798401,731.084167 
	C949.872192,733.014282 952.595459,735.096008 955.531982,737.474792 
z"/>
<path fill="#ff3d00" opacity="1.000000" stroke="none" 
	d="
M1135.959106,910.435425 
	C1134.674683,915.367371 1131.279053,916.658936 1126.860229,915.921631 
	C1123.356567,915.337036 1119.887573,914.545166 1116.497559,913.198303 
	C1122.058838,912.915588 1127.918335,914.674316 1131.776611,908.300293 
	C1133.261475,908.736267 1134.532959,909.448425 1135.959106,910.435425 
z"/>
<path fill="#ff3d00" opacity="1.000000" stroke="none" 
	d="
M940.727295,195.256363 
	C940.854004,196.572495 940.668457,198.009613 940.548462,198.939102 
	C943.530762,202.443314 948.436584,196.405090 951.268188,201.873764 
	C945.407593,202.971100 940.079041,203.968826 934.350159,204.969498 
	C936.104919,201.774078 938.259949,198.575714 940.727295,195.256363 
z"/>
<path fill="#ff3d00" opacity="1.000000" stroke="none" 
	d="
M737.043945,760.822754 
	C740.290039,758.660767 743.776794,756.865173 747.642456,755.075928 
	C748.639221,758.316711 747.493774,761.033264 744.405151,761.805908 
	C742.219788,762.352539 739.671143,761.446655 737.043945,760.822754 
z"/>
<path fill="#ff3d00" opacity="1.000000" stroke="none" 
	d="
M853.907288,483.956879 
	C855.533386,480.199860 857.190063,476.749298 859.085205,473.075684 
	C859.575867,474.685852 860.307129,476.615143 859.963257,478.328735 
	C859.495789,480.658112 858.206604,482.822510 856.989868,485.725494 
	C856.181824,485.338379 855.059814,484.800842 853.907288,483.956879 
z"/>
<path fill="#ff3d00" opacity="1.000000" stroke="none" 
	d="
M946.334229,545.002319 
	C945.039307,544.013306 943.912415,543.199768 943.171143,542.121155 
	C942.474731,541.107788 942.185486,539.814575 941.859741,538.323486 
	C944.911926,539.135864 947.821472,540.269348 950.871582,541.717285 
	C949.565002,543.041870 948.117798,544.051941 946.334229,545.002319 
z"/>
<path fill="#ff3d00" opacity="1.000000" stroke="none" 
	d="
M674.758057,446.055054 
	C672.059631,443.008850 669.688599,439.814484 667.228821,436.291077 
	C670.466980,434.549255 672.546265,435.791260 673.488647,439.092224 
	C674.128357,441.333099 674.560486,443.633270 674.758057,446.055054 
z"/>
<path fill="#ff3d00" opacity="1.000000" stroke="none" 
	d="
M1125.908813,445.424133 
	C1132.858276,443.308105 1133.959839,444.053375 1134.947876,451.751587 
	C1131.964355,450.014343 1129.006836,447.872223 1125.908813,445.424133 
z"/>
<path fill="#ff3d00" opacity="1.000000" stroke="none" 
	d="
M633.255432,635.201599 
	C633.179749,633.352173 632.906921,631.785095 633.011414,630.243530 
	C633.086731,629.131775 633.664307,628.054138 634.017883,626.961243 
	C634.614197,627.113708 635.210510,627.266113 635.806824,627.418518 
	C635.391968,630.576721 634.977173,633.734924 634.187378,636.978271 
	C633.614868,636.540527 633.417358,636.017700 633.255432,635.201599 
z"/>
<path fill="#ff3d00" opacity="1.000000" stroke="none" 
	d="
M1209.316650,1046.792480 
	C1209.179688,1044.768311 1208.791992,1042.407349 1212.208984,1043.570923 
	C1213.469604,1044.000122 1215.036743,1043.529053 1216.712524,1043.671387 
	C1214.533447,1044.882568 1212.105835,1045.891235 1209.316650,1046.792480 
z"/>
<path fill="#ff3d00" opacity="1.000000" stroke="none" 
	d="
M957.660034,535.149048 
	C958.528320,535.270264 959.054199,535.545410 959.853149,535.937378 
	C958.318481,537.431702 956.510742,538.809204 954.356812,540.280029 
	C953.505249,537.634583 954.588318,535.931824 957.660034,535.149048 
z"/>
<path fill="#ff3d00" opacity="1.000000" stroke="none" 
	d="
M618.076599,608.325500 
	C620.818420,608.084412 623.234070,608.672852 622.961060,612.751953 
	C621.363464,611.642883 619.782104,610.138184 618.076599,608.325500 
z"/>
<path fill="#ff3d00" opacity="1.000000" stroke="none" 
	d="
M898.302246,648.718262 
	C898.009094,647.774109 897.841736,646.504150 897.934631,645.073242 
	C898.272644,646.072266 898.350342,647.232361 898.302246,648.718262 
z"/>
<path fill="#ff3d00" opacity="1.000000" stroke="none" 
	d="
M898.987793,641.691284 
	C898.758789,641.025940 898.717041,640.097961 898.906128,639.040527 
	C899.149658,639.750305 899.162292,640.589539 898.987793,641.691284 
z"/>
<path fill="#ff3d00" opacity="1.000000" stroke="none" 
	d="
M788.237976,750.615845 
	C788.809814,750.157349 789.698059,749.769287 790.769775,749.604614 
	C790.153687,750.114075 789.354065,750.400085 788.237976,750.615845 
z"/>
<path fill="#ff3d00" opacity="1.000000" stroke="none" 
	d="
M900.285339,663.780396 
	C899.921753,663.180176 899.676819,662.281677 899.641235,661.213867 
	C900.035034,661.857056 900.219482,662.669556 900.285339,663.780396 
z"/>
<path fill="#ff3d00" opacity="1.000000" stroke="none" 
	d="
M939.367065,549.465759 
	C939.819702,548.747498 940.612610,547.929749 941.772705,547.083374 
	C941.328979,547.825256 940.518188,548.595764 939.367065,549.465759 
z"/>
<path fill="#ff3d00" opacity="1.000000" stroke="none" 
	d="
M625.776123,617.320007 
	C626.410156,617.807251 627.173340,618.596863 627.910645,619.771851 
	C627.224915,619.312317 626.565063,618.467346 625.776123,617.320007 
z"/>
<path fill="#ff3d00" opacity="1.000000" stroke="none" 
	d="
M671.696655,709.436401 
	C672.317200,709.497253 673.087952,709.839294 673.952332,710.512268 
	C673.312927,710.468079 672.579956,710.092834 671.696655,709.436401 
z"/>
<path fill="#ff3d00" opacity="1.000000" stroke="none" 
	d="
M1167.246338,1046.046387 
	C1167.686035,1045.911133 1168.341187,1045.958252 1169.035156,1046.257812 
	C1168.536499,1046.416382 1167.999146,1046.322510 1167.246338,1046.046387 
z"/>
<path fill="#ff3d00" opacity="1.000000" stroke="none" 
	d="
M588.677612,696.980042 
	C588.465149,697.482361 587.957153,698.011414 587.254028,698.352661 
	C587.500000,697.778870 587.941040,697.392822 588.677612,696.980042 
z"/>
<path fill="#ff3d00" opacity="1.000000" stroke="none" 
	d="
M632.973328,664.245056 
	C633.068665,664.688660 632.935242,665.312500 632.551392,666.003296 
	C632.448853,665.521851 632.596741,664.973633 632.973328,664.245056 
z"/>
<path fill="#ff3d00" opacity="1.000000" stroke="none" 
	d="
M1029.566895,452.720215 
	C1029.614746,452.922638 1029.428711,453.122162 1029.125244,453.187988 
	C1029.007812,453.054321 1029.332764,452.717285 1029.566895,452.720215 
z"/>
<path fill="#ff3d00" opacity="1.000000" stroke="none" 
	d="
M890.465149,416.528381 
	C890.442993,416.486328 890.487305,416.570465 890.465149,416.528381 
z"/>
<path fill="#ff3d00" opacity="1.000000" stroke="none" 
	d="
M1123.451538,443.058960 
	C1123.651611,442.842957 1123.856567,442.921021 1124.042725,443.310791 
	C1123.836792,443.500275 1123.647583,443.410461 1123.451538,443.058960 
z"/>
<path fill="#ff3d00" opacity="1.000000" stroke="none" 
	d="
M942.980469,532.171143 
	C941.009155,530.118286 939.435303,528.158325 937.861511,526.198425 
	C938.260498,525.737061 938.659485,525.275696 939.058472,524.814331 
	C942.906555,526.948608 946.754639,529.082886 950.602722,531.217163 
	C950.627563,531.677917 950.652344,532.138733 950.677185,532.599548 
	C948.244141,532.487732 945.811096,532.375916 942.980469,532.171143 
z"/>
<path fill="#ff3d00" opacity="1.000000" stroke="none" 
	d="
M925.202026,728.764771 
	C922.312500,725.924866 922.873596,724.374329 926.641968,723.998169 
	C928.543823,723.808289 930.435608,723.516968 932.331909,723.271545 
	C932.578247,723.776245 932.824585,724.280884 933.070923,724.785583 
	C930.564636,726.138672 928.058289,727.491699 925.202026,728.764771 
z"/>
<path fill="#ff3d00" opacity="1.000000" stroke="none" 
	d="
M933.997559,544.995117 
	C931.628357,544.995850 929.259216,544.996704 926.446228,544.997559 
	C927.222595,543.534973 928.442749,542.072388 929.831482,540.304932 
	C930.444458,540.000000 930.888916,540.000000 931.824951,540.306396 
	C932.876831,542.073547 933.437195,543.534363 933.997559,544.995117 
z"/>
<path fill="#ff3d00" opacity="1.000000" stroke="none" 
	d="
M675.286560,696.450562 
	C676.563904,697.818359 677.510986,699.304443 678.458069,700.790527 
	C677.218262,700.664734 675.807434,700.873718 674.773376,700.345276 
	C672.433777,699.149475 672.657593,697.724365 675.286560,696.450562 
z"/>
<path fill="#ff3d00" opacity="1.000000" stroke="none" 
	d="
M929.846924,535.711792 
	C929.740662,536.495300 929.481323,536.990601 929.110962,537.742981 
	C927.753113,537.661133 926.506226,537.322205 925.259338,536.983276 
	C925.315613,536.346069 925.371887,535.708801 925.428101,535.071594 
	C926.849976,535.188965 928.271912,535.306274 929.846924,535.711792 
z"/>
<path fill="#ff3d00" opacity="1.000000" stroke="none" 
	d="
M880.238892,531.599426 
	C878.736084,531.489502 877.525085,531.195862 875.271057,530.649292 
	C880.540771,528.408997 880.567078,528.417480 880.238892,531.599426 
z"/>
<path fill="#ff3d00" opacity="1.000000" stroke="none" 
	d="
M931.466797,522.548340 
	C931.190308,521.327515 931.243408,520.277466 931.296509,519.227478 
	C932.112854,519.573792 932.929260,519.920166 933.745605,520.266479 
	C933.095825,521.084045 932.446045,521.901611 931.466797,522.548340 
z"/>
<path fill="#ff3d00" opacity="1.000000" stroke="none" 
	d="
M925.924927,715.952271 
	C926.664429,716.772400 927.197266,717.343506 927.730164,717.914612 
	C927.490784,718.238647 927.251404,718.562622 927.012024,718.886597 
	C925.819580,717.968201 924.627075,717.049744 923.434631,716.131226 
	C924.195862,715.988586 924.957031,715.845947 925.924927,715.952271 
z"/>
<path fill="#ff3d00" opacity="1.000000" stroke="none" 
	d="
M594.334656,712.843140 
	C595.263245,712.182678 596.281799,711.867859 597.300415,711.553040 
	C597.353027,712.135315 597.405701,712.717651 597.458313,713.299927 
	C596.447083,713.262878 595.435913,713.225769 594.334656,712.843140 
z"/>
<path fill="#ff3d00" opacity="1.000000" stroke="none" 
	d="
M956.007935,530.346313 
	C957.213074,530.309631 958.423767,530.624146 959.634399,530.938660 
	C959.318237,531.581055 959.002075,532.223450 958.344116,532.934082 
	C957.339417,532.234131 956.676392,531.465820 956.007935,530.346313 
z"/>
<path fill="#ff3d00" opacity="1.000000" stroke="none" 
	d="
M898.975647,671.384155 
	C898.518066,670.162292 898.390869,668.939819 898.263611,667.717407 
	C898.791260,667.710693 899.318909,667.703979 899.846619,667.697266 
	C899.666382,668.926086 899.486206,670.154846 898.975647,671.384155 
z"/>
<path fill="#ff3d00" opacity="1.000000" stroke="none" 
	d="
M930.639160,528.566040 
	C931.056152,528.674622 931.308777,528.940063 931.561340,529.205444 
	C931.451416,529.309875 931.251465,529.511230 931.244568,529.504883 
	C930.977051,529.255981 930.727051,528.988159 930.639160,528.566040 
z"/>
<path fill="#ff3d00" opacity="1.000000" stroke="none" 
	d="
M917.955322,515.562378 
	C917.731750,515.194275 917.734253,514.828674 917.762939,514.465149 
	C917.763794,514.455017 918.047058,514.467285 918.198669,514.469116 
	C918.194092,514.834473 918.189514,515.199768 917.955322,515.562378 
z"/>
<path fill="#ff3d00" opacity="1.000000" stroke="none" 
	d="
M661.560791,503.388184 
	C661.666870,503.165680 661.827637,502.953735 661.988403,502.741760 
	C661.987671,502.916351 661.986938,503.090912 661.812866,503.386475 
	C661.639648,503.507416 661.615417,503.398743 661.560791,503.388184 
z"/>
<path fill="#ff3d00" opacity="1.000000" stroke="none" 
	d="
M1252.973145,962.509766 
	C1252.969360,966.908386 1253.072754,970.859619 1252.969849,974.805542 
	C1252.684570,985.745789 1252.320190,996.683960 1251.956421,1007.621887 
	C1251.937134,1008.201965 1251.635986,1008.772644 1251.304932,1009.892639 
	C1249.885498,1007.562744 1248.766602,1005.726013 1247.647583,1003.889282 
	C1248.012939,1003.919250 1248.378174,1003.949219 1248.743408,1003.979187 
	C1249.160400,1000.502747 1249.967163,997.021851 1249.926636,993.550720 
	C1249.751099,978.485840 1249.320312,963.424011 1249.003418,948.360596 
	C1248.948853,945.763855 1248.995850,943.165039 1249.559082,940.548645 
	C1254.545410,947.206848 1252.540161,954.812561 1252.973145,962.509766 
z"/>
<path fill="#ff3d00" opacity="1.000000" stroke="none" 
	d="
M1172.997559,915.997192 
	C1173.818359,915.007202 1174.619019,913.187439 1175.468384,913.164429 
	C1182.452148,912.975159 1189.445312,913.097839 1196.434082,913.211914 
	C1196.909668,913.219666 1197.373779,913.923096 1197.843262,914.302979 
	C1197.806274,914.868103 1197.769409,915.433167 1197.732544,915.998291 
	C1189.802124,915.998291 1181.871582,915.998291 1173.473022,916.001953 
	C1173.004883,916.005554 1173.000000,916.000000 1172.997559,915.997192 
z"/>
<path fill="#ff3d00" opacity="1.000000" stroke="none" 
	d="
M1177.787842,920.181885 
	C1178.460938,921.248230 1179.284058,922.966797 1179.005127,923.169617 
	C1177.781006,924.059570 1176.238159,924.511169 1174.810913,925.121765 
	C1174.440063,924.562866 1174.069214,924.004028 1173.698242,923.445190 
	C1174.942505,922.342285 1176.186646,921.239441 1177.787842,920.181885 
z"/>
<path fill="#ff3d00" opacity="1.000000" stroke="none" 
	d="
M1183.293701,923.171387 
	C1184.145142,922.933899 1184.917358,923.022400 1185.689575,923.110962 
	C1185.572998,923.553406 1185.456421,923.995789 1185.339844,924.438232 
	C1184.631348,924.124573 1183.922974,923.810974 1183.293701,923.171387 
z"/>
<path fill="#ff3d00" opacity="1.000000" stroke="none" 
	d="
M365.867554,797.014160 
	C362.596008,797.014587 359.789551,797.014587 356.012634,797.014587 
	C356.012634,805.138550 356.012634,812.844910 356.012634,820.551270 
	C356.012634,828.125061 356.012634,835.698853 356.012634,843.272583 
	C355.644958,843.417175 355.277283,843.561707 354.909576,843.706238 
	C354.308960,842.987427 353.225037,842.293030 353.187164,841.545654 
	C352.963379,837.131531 353.008423,832.704468 352.914917,828.282837 
	C352.733368,819.697266 352.800385,811.093445 352.219086,802.534180 
	C351.845062,797.026917 353.945465,794.369568 359.371643,793.869751 
	C363.189728,793.518127 366.907471,792.077393 370.787018,791.093201 
	C370.803223,793.316223 372.791962,797.616577 365.867554,797.014160 
z"/>
<path fill="#ff3d00" opacity="1.000000" stroke="none" 
	d="
M370.764465,786.214844 
	C370.415253,786.789368 370.003296,787.077759 369.591370,787.366150 
	C369.480194,786.939453 369.369019,786.512695 369.257812,786.085999 
	C369.739105,786.033508 370.220428,785.981079 370.764465,786.214844 
z"/>
<path fill="#ff3d00" opacity="1.000000" stroke="none" 
	d="
M942.766724,754.961548 
	C940.436096,753.783203 938.488220,752.582092 935.896301,750.983948 
	C939.825562,748.010803 942.047241,749.054626 943.640015,751.368652 
	C944.143250,752.099731 943.349487,753.723633 942.766724,754.961548 
z"/>
<path fill="#ff3d00" opacity="1.000000" stroke="none" 
	d="
M950.651794,750.155640 
	C950.687988,751.025696 950.404663,751.821106 950.121338,752.616516 
	C949.606445,752.291809 949.091614,751.967041 948.576782,751.642273 
	C949.161987,751.121887 949.747131,750.601440 950.651794,750.155640 
z"/>
<path fill="#ff3d00" opacity="1.000000" stroke="none" 
	d="
M956.538330,753.476746 
	C956.562500,753.520752 956.514160,753.432739 956.538330,753.476746 
z"/>
<path fill="#ff3d00" opacity="1.000000" stroke="none" 
	d="
M1130.412842,943.750977 
	C1130.599365,943.806274 1130.662231,943.940491 1130.725220,944.074646 
	C1130.579834,943.993042 1130.434570,943.911438 1130.412842,943.750977 
z"/>
<path fill="#ff3d00" opacity="1.000000" stroke="none" 
	d="
M630.888672,626.129150 
	C630.872559,626.159607 630.969299,626.114685 630.930176,626.150879 
	C630.794250,626.231995 631.001648,626.053711 630.888672,626.129150 
z"/>
<path fill="#ff3d00" opacity="1.000000" stroke="none" 
	d="
M1111.145508,359.707397 
	C1111.273438,359.304199 1111.441040,359.107697 1111.608643,358.911194 
	C1111.687500,359.198242 1111.766479,359.485260 1111.845459,359.772278 
	C1111.625366,359.819550 1111.405151,359.866821 1111.145508,359.707397 
z"/>
<path fill="#ff3d00" opacity="1.000000" stroke="none" 
	d="
M614.537781,685.476562 
	C614.561584,685.520325 614.513977,685.432861 614.537781,685.476562 
z"/>
<path fill="#ff3d00" opacity="1.000000" stroke="none" 
	d="
M934.350220,544.950195 
	C933.437195,543.534363 932.876831,542.073547 932.158203,540.306396 
	C933.476257,540.371216 934.952454,540.742371 936.428711,541.113525 
	C935.853394,542.377380 935.278137,543.641357 934.350220,544.950195 
z"/>
</g>
</svg>